<?xml version="1.0" standalone="no"?>
<!DOCTYPE svg PUBLIC "-//W3C//DTD SVG 20010904//EN"
 "http://www.w3.org/TR/2001/REC-SVG-20010904/DTD/svg10.dtd">
<svg version="1.0" xmlns="http://www.w3.org/2000/svg"
 width="512.000000pt" height="512.000000pt" viewBox="0 0 512.000000 512.000000"
 preserveAspectRatio="xMidYMid meet">
<metadata>
Created by potrace 1.11, written by Peter Selinger 2001-2013
</metadata>
<g transform="translate(0.000000,512.000000) scale(0.100000,-0.100000)"
fill="#000000" stroke="none">
<path d="M2398 4825 c-1 -1 -32 -6 -68 -10 -133 -14 -255 -35 -310 -54 -14 -5
-54 -17 -90 -27 -138 -37 -365 -138 -505 -222 -192 -116 -398 -290 -532 -449
-21 -25 -46 -54 -55 -64 -10 -11 -18 -23 -18 -29 0 -5 -3 -10 -8 -10 -4 0 -27
-30 -52 -67 -25 -38 -48 -70 -51 -73 -21 -19 -189 -335 -189 -355 0 -4 -6 -21
-14 -38 -17 -39 -66 -179 -71 -205 -2 -10 -10 -43 -19 -73 -9 -30 -16 -55 -16
-56 0 -2 0 -4 -1 -5 0 -2 -2 -16 -5 -33 -9 -60 -13 -80 -14 -80 -1 0 -3 -18
-6 -40 -2 -22 -7 -53 -10 -70 -11 -50 -13 -469 -2 -482 6 -7 5 -14 -2 -18 -7
-4 -8 -11 -1 -18 5 -7 12 -37 15 -67 4 -30 10 -72 15 -92 5 -21 7 -38 4 -38
-3 0 -1 -6 6 -13 8 -10 7 -17 -2 -27 -10 -10 -9 -11 2 -5 11 6 13 3 9 -13 -4
-12 -2 -25 3 -28 5 -3 9 -11 8 -17 -1 -7 1 -30 6 -52 4 -22 9 -48 11 -58 1 -9
6 -22 10 -29 4 -6 3 -8 -4 -4 -6 3 -14 2 -17 -4 -4 -6 -1 -9 5 -8 17 4 41 -77
27 -91 -8 -8 -8 -11 0 -11 6 0 10 -13 9 -29 -1 -17 2 -27 7 -24 6 4 8 -5 5
-20 -3 -15 -2 -24 2 -22 4 2 10 -17 13 -43 4 -26 9 -60 13 -77 3 -16 8 -39 10
-50 6 -35 24 -119 28 -135 2 -8 -2 -18 -8 -22 -8 -5 -7 -8 2 -8 6 0 12 -9 12
-21 0 -13 -4 -18 -12 -13 -7 4 -8 3 -4 -5 4 -6 11 -9 16 -6 5 3 12 -21 16 -52
9 -66 8 -62 18 -85 5 -10 6 -24 3 -32 -3 -8 -3 -17 1 -20 3 -4 7 -14 9 -24 4
-23 14 -84 15 -99 1 -7 5 -13 9 -13 4 0 5 -9 2 -20 -5 -20 1 -23 49 -23 10 0
18 -4 18 -8 0 -5 5 -9 11 -9 5 0 8 3 5 8 -5 9 66 8 81 -1 7 -4 14 -4 16 0 3 5
27 8 53 7 47 -1 49 -2 55 -35 5 -20 3 -39 -3 -47 -8 -9 -7 -11 4 -7 11 4 15
-5 17 -37 1 -24 6 -44 11 -46 6 -2 6 -11 0 -23 -8 -14 -7 -19 1 -19 7 0 10
-12 7 -30 -3 -16 0 -30 5 -30 5 0 7 -9 4 -20 -3 -11 -1 -20 3 -20 5 0 8 -8 8
-18 0 -9 2 -30 6 -47 4 -16 9 -43 12 -59 3 -16 12 -39 20 -51 8 -12 11 -25 7
-30 -5 -4 -2 -5 5 -1 6 4 12 2 12 -3 0 -6 6 -10 13 -8 6 1 11 -3 10 -8 -2 -12
4 -13 135 -15 51 0 90 -5 87 -10 -3 -5 -1 -12 5 -15 6 -4 9 -1 8 7 -2 10 23
13 115 15 68 1 115 -1 112 -7 -3 -5 -1 -12 5 -15 6 -4 9 -1 8 7 -2 9 13 14 55
16 37 2 57 -1 53 -7 -4 -5 -2 -13 4 -16 6 -4 9 -1 8 7 -4 16 137 28 154 13 8
-7 9 -6 3 4 -6 11 -4 13 8 8 10 -4 17 -2 17 4 0 6 7 8 16 5 8 -3 12 -2 9 3 -3
5 5 13 17 17 34 10 97 79 120 131 11 26 21 69 22 97 1 28 6 57 10 65 6 10 5
12 -2 7 -7 -4 -12 -1 -13 6 0 7 -2 20 -4 28 -6 32 -27 147 -32 175 -8 52 -11
70 -17 85 -3 8 -7 31 -10 50 -3 19 -11 62 -17 95 -24 129 -27 150 -22 158 2 4
-1 7 -7 7 -6 0 -11 10 -10 23 1 12 1 24 0 27 -3 10 -19 90 -25 130 -2 14 -8
46 -13 72 -5 26 -7 50 -4 53 3 3 1 5 -4 5 -6 0 -10 10 -11 23 -1 29 -10 82
-17 104 -3 10 -8 32 -10 48 -3 17 -10 57 -16 90 -6 33 -13 71 -15 85 -2 14 -4
25 -5 25 -1 0 -3 9 -5 20 -13 79 -21 105 -41 145 -70 141 -232 190 -388 120
-23 -10 -102 -41 -176 -69 -74 -29 -144 -56 -155 -61 -11 -5 -68 -28 -127 -50
-114 -44 -150 -74 -151 -126 0 -45 -14 -15 -27 58 -7 40 -14 82 -16 93 -3 11
-7 38 -10 60 -4 22 -10 49 -13 60 -4 11 -7 39 -7 62 1 24 -2 43 -6 43 -4 0 -6
14 -4 30 2 17 -1 30 -7 30 -6 0 -5 5 2 13 8 10 7 17 -1 25 -9 9 -9 12 3 12 12
0 12 2 0 9 -8 6 -10 14 -5 23 10 16 95 19 106 3 5 -6 8 -5 8 2 0 7 7 10 15 7
8 -4 12 -11 9 -16 -4 -6 4 -4 17 4 30 17 65 17 61 -2 -3 -11 0 -11 13 0 18 15
85 21 85 7 0 -4 6 -5 13 0 17 11 30 11 45 0 9 -7 11 -6 6 7 -4 10 -1 16 8 16
17 0 58 41 58 59 0 7 4 10 9 6 6 -3 8 6 5 21 -3 14 -1 23 3 21 4 -3 9 20 10
51 2 32 8 59 15 64 10 6 10 8 -1 8 -8 0 -11 6 -6 18 4 9 9 28 11 42 3 14 12
50 20 80 9 30 18 65 21 77 3 13 8 21 12 19 3 -2 7 8 8 22 0 15 6 28 12 30 5 2
7 10 4 19 -5 12 -3 14 7 8 9 -5 11 -4 6 4 -8 12 23 86 55 132 10 14 16 29 12
33 -3 3 -1 6 5 6 7 0 12 7 12 15 0 7 7 18 16 23 9 5 15 12 15 15 -3 19 0 21
10 7 8 -12 9 -10 4 7 -5 17 2 30 24 52 16 16 27 32 24 35 -4 3 -1 6 6 6 7 0 9
5 6 10 -3 6 -2 10 4 10 5 0 18 13 27 29 10 17 21 28 26 25 4 -3 8 -1 8 5 0 5
7 17 16 26 13 13 19 13 33 3 14 -12 15 -11 2 5 -13 17 -10 22 31 60 74 68 88
78 101 71 7 -4 9 -3 4 1 -8 9 20 45 35 45 5 0 18 9 30 20 12 11 28 20 35 20 7
0 13 4 13 9 0 5 16 16 35 25 19 9 35 21 35 26 0 6 3 9 8 8 4 -1 17 3 30 10 23
13 47 8 37 -8 -3 -5 -1 -11 4 -14 11 -7 9 13 -2 32 -5 6 -6 13 -3 13 22 5 33
4 46 -5 13 -10 13 -9 1 7 -7 9 -12 17 -10 18 2 0 13 3 24 5 11 3 26 6 33 6 6
1 12 5 12 10 0 5 5 6 10 3 6 -3 10 -1 10 4 0 6 11 11 23 11 13 0 27 3 31 7 13
13 76 31 76 21 0 -5 7 -3 15 5 8 9 26 14 40 13 14 -2 25 0 25 4 0 13 59 17 70
6 8 -8 11 -7 8 3 -2 10 8 15 35 17 21 1 45 5 53 8 8 3 14 1 14 -5 0 -6 5 -7
10 -4 14 9 47 14 95 16 61 2 69 1 59 -14 -5 -7 -2 -5 7 5 14 14 19 15 28 4 6
-7 7 -17 3 -21 -4 -5 -1 -5 6 -1 7 4 10 11 7 15 -2 5 17 7 43 5 26 -1 47 -3
47 -4 0 -1 16 -3 35 -5 58 -5 115 -17 120 -24 3 -4 16 -6 30 -6 14 0 61 -12
105 -28 44 -16 90 -32 103 -34 12 -3 22 -13 23 -22 0 -9 3 -11 5 -4 6 14 54
-4 54 -20 0 -6 3 -8 6 -4 12 11 104 -42 104 -61 0 -14 2 -14 9 -3 7 11 13 10
32 -9 13 -12 39 -29 57 -36 33 -15 41 -29 20 -38 -7 -2 -2 -4 12 -3 16 1 24
-3 22 -11 -1 -8 2 -11 8 -7 5 3 10 1 10 -5 0 -6 4 -9 9 -6 11 7 53 -39 44 -49
-5 -4 -2 -5 4 -1 11 6 50 -29 160 -146 19 -20 23 -31 15 -40 -7 -10 -5 -19 9
-37 10 -13 19 -19 19 -13 0 5 -7 15 -15 22 -8 7 -12 17 -9 22 4 6 17 -2 30
-17 13 -15 21 -32 18 -36 -3 -5 0 -9 6 -9 10 0 60 -75 50 -75 -3 0 5 -11 18
-25 24 -26 29 -45 10 -35 -7 4 -2 -2 10 -12 13 -11 25 -31 25 -45 1 -14 5 -24
10 -21 6 4 8 -2 7 -22 -1 -3 6 -13 15 -22 9 -8 14 -21 11 -29 -3 -7 0 -14 5
-16 6 -2 12 -15 12 -30 1 -14 5 -24 8 -22 6 3 31 -71 34 -105 1 -9 5 -23 8
-31 4 -8 8 -27 11 -42 3 -15 7 -32 10 -37 4 -5 2 -13 -4 -16 -8 -5 -7 -11 1
-22 7 -8 14 -33 16 -56 2 -23 5 -52 6 -64 1 -13 5 -23 8 -23 7 0 22 -40 20
-53 -1 -5 3 -6 8 -3 5 4 16 -1 24 -9 9 -8 20 -15 26 -15 6 0 11 -6 11 -12 0
-8 3 -9 8 -3 9 12 102 15 102 3 0 -4 5 -8 11 -8 5 0 8 3 6 8 -3 4 24 7 59 7
35 1 64 -3 64 -8 0 -5 8 -3 17 4 15 12 16 12 10 -5 -7 -16 -5 -17 9 -6 19 17
72 20 77 6 7 -20 -9 -178 -28 -271 -19 -98 -37 -195 -42 -225 -3 -19 -9 -39
-15 -45 -6 -7 -9 -5 -8 5 1 8 2 22 1 31 -1 21 -51 79 -67 79 -6 0 -31 8 -55
19 -42 17 -78 32 -89 36 -3 1 -14 5 -25 10 -19 8 -67 26 -349 136 -115 44
-199 54 -245 30 -12 -7 -21 -9 -21 -6 0 9 -52 -26 -88 -59 -45 -42 -77 -106
-92 -191 -7 -38 -13 -76 -13 -82 0 -7 -3 -13 -6 -13 -3 0 -7 -17 -8 -37 -1
-20 -8 -40 -15 -44 -7 -5 -8 -9 -2 -9 7 0 3 -39 -12 -115 -26 -126 -31 -151
-39 -210 -4 -22 -8 -48 -11 -57 -8 -27 -15 -61 -20 -98 -5 -40 -4 -32 -38
-210 -14 -74 -28 -146 -30 -160 -3 -14 -5 -25 -6 -25 -1 0 -3 -12 -5 -26 -7
-53 -14 -96 -19 -110 -3 -8 -7 -30 -10 -49 -3 -19 -9 -48 -12 -65 -4 -16 -7
-47 -7 -67 -1 -21 -5 -38 -10 -38 -5 0 -5 -6 2 -13 8 -10 7 -17 -2 -27 -8 -9
-8 -11 0 -6 7 4 16 -8 24 -31 7 -21 11 -40 10 -42 -2 -2 4 -8 13 -13 9 -5 14
-13 11 -19 -4 -5 1 -9 10 -9 11 0 15 -5 11 -16 -3 -8 -2 -12 4 -9 6 3 10 3 10
-2 0 -4 14 -14 30 -21 17 -8 28 -18 25 -23 -4 -5 0 -6 8 -4 7 3 26 -6 41 -20
15 -14 30 -25 34 -25 4 0 -2 8 -13 17 -19 15 -19 15 10 8 16 -3 71 -6 122 -6
54 0 92 -3 88 -8 -3 -6 -1 -13 5 -16 6 -4 9 -1 8 7 -2 10 17 14 75 16 49 2 76
-1 73 -7 -4 -5 -2 -13 4 -16 6 -4 9 -1 8 7 -2 10 27 13 135 15 79 1 135 -2
132 -7 -3 -5 0 -12 6 -16 8 -4 9 -3 5 5 -9 14 30 30 62 25 12 -3 21 -1 20 3
-2 5 9 20 22 35 39 41 45 51 47 82 1 16 5 37 9 45 3 9 7 36 9 61 1 25 6 44 11
43 5 -1 8 16 8 38 -1 23 4 46 13 54 8 8 10 15 4 15 -5 0 -8 12 -5 28 12 73 15
81 32 76 15 -5 15 -5 1 5 -19 12 -14 57 7 65 8 3 14 1 14 -5 0 -6 5 -7 12 -3
16 10 128 12 122 2 -3 -5 0 -8 5 -8 6 0 11 4 11 9 0 5 19 8 43 6 49 -4 73 6
64 28 -3 8 -3 18 1 21 6 6 10 21 16 61 2 11 4 20 6 20 1 0 3 14 6 30 6 49 12
90 15 93 3 5 7 23 8 48 0 14 5 23 9 20 5 -3 8 9 7 27 -2 44 10 83 24 79 7 -1
10 2 6 8 -3 6 -11 7 -17 4 -6 -4 -8 -3 -5 3 3 5 9 23 11 39 3 16 8 40 11 54 3
14 8 36 11 50 2 14 7 36 10 50 3 14 8 39 10 55 2 17 6 39 8 50 3 11 5 30 5 43
1 13 4 21 9 19 4 -3 8 16 9 41 4 63 5 72 13 72 4 0 6 10 5 23 -1 12 0 27 4 32
3 6 6 21 7 35 1 14 3 26 4 28 1 1 4 11 5 22 1 11 4 21 5 23 1 1 3 13 5 27 3
30 13 84 22 125 4 17 6 33 5 38 -1 4 1 7 6 7 4 0 7 15 8 33 0 17 5 66 10 107
14 113 8 570 -6 570 -4 0 -6 10 -7 23 -1 12 -4 36 -7 52 -6 28 -28 134 -31
145 -1 3 -9 32 -19 65 -10 33 -19 65 -21 70 -2 9 -6 22 -22 63 -3 9 -7 19 -7
22 -1 3 -7 21 -15 40 -196 507 -590 941 -1071 1181 -146 72 -344 149 -427 164
-14 2 -39 8 -56 14 -32 9 -98 23 -127 26 -8 1 -31 4 -50 8 -86 16 -137 19
-317 22 -105 2 -193 2 -195 0z"/>
<path d="M2546 3978 c3 -5 10 -6 15 -3 13 9 11 12 -6 12 -8 0 -12 -4 -9 -9z"/>
<path d="M2713 3965 c0 -8 4 -12 9 -9 5 3 6 10 3 15 -9 13 -12 11 -12 -6z"/>
<path d="M2457 3955 c-4 -8 -3 -16 1 -19 4 -3 9 4 9 15 2 23 -3 25 -10 4z"/>
<path d="M2513 3955 c0 -8 4 -12 9 -9 5 3 6 10 3 15 -9 13 -12 11 -12 -6z"/>
<path d="M2410 3939 c0 -5 5 -7 10 -4 6 3 10 8 10 11 0 2 -4 4 -10 4 -5 0 -10
-5 -10 -11z"/>
<path d="M2610 3939 c0 -5 5 -7 10 -4 6 3 10 8 10 11 0 2 -4 4 -10 4 -5 0 -10
-5 -10 -11z"/>
<path d="M2929 3923 c-13 -16 -12 -17 4 -4 16 13 21 21 13 21 -2 0 -10 -8 -17
-17z"/>
<path d="M2526 3922 c-3 -5 1 -9 9 -9 8 0 12 4 9 9 -3 4 -7 8 -9 8 -2 0 -6 -4
-9 -8z"/>
<path d="M2890 3919 c0 -5 5 -7 10 -4 6 3 10 8 10 11 0 2 -4 4 -10 4 -5 0 -10
-5 -10 -11z"/>
<path d="M2190 3906 c0 -2 7 -7 16 -10 8 -3 12 -2 9 4 -6 10 -25 14 -25 6z"/>
<path d="M2095 3889 c-4 -6 -5 -12 -2 -15 2 -3 7 2 10 11 7 17 1 20 -8 4z"/>
<path d="M3070 3881 c0 -6 4 -12 8 -15 5 -3 9 1 9 9 0 8 -4 15 -9 15 -4 0 -8
-4 -8 -9z"/>
<path d="M1840 3780 c-9 -6 -10 -10 -3 -10 6 0 15 5 18 10 8 12 4 12 -15 0z"/>
<path d="M1874 3782 c4 -3 14 -7 22 -8 9 -1 13 0 10 4 -4 3 -14 7 -22 8 -9 1
-13 0 -10 -4z"/>
<path d="M3255 3780 c3 -5 8 -10 11 -10 2 0 4 5 4 10 0 6 -5 10 -11 10 -5 0
-7 -4 -4 -10z"/>
<path d="M3350 3756 c0 -2 8 -10 18 -17 15 -13 16 -12 3 4 -13 16 -21 21 -21
13z"/>
<path d="M1880 3740 c-9 -6 -10 -10 -3 -10 6 0 15 5 18 10 8 12 4 12 -15 0z"/>
<path d="M1656 3618 c3 -5 10 -6 15 -3 13 9 11 12 -6 12 -8 0 -12 -4 -9 -9z"/>
<path d="M3540 3566 c0 -2 8 -10 18 -17 15 -13 16 -12 3 4 -13 16 -21 21 -21
13z"/>
<path d="M1450 3459 c0 -5 5 -7 10 -4 6 3 10 8 10 11 0 2 -4 4 -10 4 -5 0 -10
-5 -10 -11z"/>
<path d="M3695 3440 c3 -5 8 -10 11 -10 2 0 4 5 4 10 0 6 -5 10 -11 10 -5 0
-7 -4 -4 -10z"/>
<path d="M3773 3335 c0 -8 4 -12 9 -9 5 3 6 10 3 15 -9 13 -12 11 -12 -6z"/>
<path d="M3790 3260 c0 -5 5 -10 11 -10 5 0 7 5 4 10 -3 6 -8 10 -11 10 -2 0
-4 -4 -4 -10z"/>
<path d="M1236 3047 c3 -10 9 -15 12 -12 3 3 0 11 -7 18 -10 9 -11 8 -5 -6z"/>
<path d="M1155 2900 c3 -5 8 -10 11 -10 2 0 4 5 4 10 0 6 -5 10 -11 10 -5 0
-7 -4 -4 -10z"/>
<path d="M915 2511 c-3 -5 -2 -12 3 -15 5 -3 9 1 9 9 0 17 -3 19 -12 6z"/>
<path d="M4346 2498 c3 -4 9 -8 15 -8 5 0 9 4 9 8 0 5 -7 9 -15 9 -8 0 -12 -4
-9 -9z"/>
<path d="M787 2479 c7 -7 15 -10 18 -7 3 3 -2 9 -12 12 -14 6 -15 5 -6 -5z"/>
<path d="M970 2480 c0 -5 5 -10 11 -10 5 0 7 5 4 10 -3 6 -8 10 -11 10 -2 0
-4 -4 -4 -10z"/>
<path d="M4396 2478 c3 -5 10 -6 15 -3 13 9 11 12 -6 12 -8 0 -12 -4 -9 -9z"/>
<path d="M4435 2481 c-3 -5 -2 -12 3 -15 5 -3 9 1 9 9 0 17 -3 19 -12 6z"/>
<path d="M933 2465 c0 -8 4 -12 9 -9 5 3 6 10 3 15 -9 13 -12 11 -12 -6z"/>
<path d="M830 2466 c0 -2 7 -7 16 -10 8 -3 12 -2 9 4 -6 10 -25 14 -25 6z"/>
<path d="M4176 2458 c3 -4 11 -5 19 -1 21 7 19 12 -4 10 -11 0 -18 -5 -15 -9z"/>
<path d="M4455 2441 c-3 -5 -2 -12 3 -15 5 -3 9 1 9 9 0 17 -3 19 -12 6z"/>
<path d="M655 931 c-3 -5 -2 -12 3 -15 5 -3 9 1 9 9 0 17 -3 19 -12 6z"/>
<path d="M750 920 c0 -5 5 -10 11 -10 5 0 7 5 4 10 -3 6 -8 10 -11 10 -2 0 -4
-4 -4 -10z"/>
<path d="M4286 918 c3 -5 10 -6 15 -3 13 9 11 12 -6 12 -8 0 -12 -4 -9 -9z"/>
<path d="M4430 926 c0 -2 7 -7 16 -10 8 -3 12 -2 9 4 -6 10 -25 14 -25 6z"/>
<path d="M794 906 c1 -8 5 -18 8 -22 4 -3 5 1 4 10 -1 8 -5 18 -8 22 -4 3 -5
-1 -4 -10z"/>
<path d="M675 901 c-3 -5 -2 -12 3 -15 5 -3 9 1 9 9 0 17 -3 19 -12 6z"/>
<path d="M1995 531 c-3 -5 -2 -12 3 -15 5 -3 9 1 9 9 0 17 -3 19 -12 6z"/>
<path d="M1870 400 c0 -5 5 -10 11 -10 5 0 7 5 4 10 -3 6 -8 10 -11 10 -2 0
-4 -4 -4 -10z"/>
<path d="M1150 376 c0 -2 8 -10 18 -17 15 -13 16 -12 3 4 -13 16 -21 21 -21
13z"/>
<path d="M1390 376 c0 -2 8 -10 18 -17 15 -13 16 -12 3 4 -13 16 -21 21 -21
13z"/>
<path d="M3870 376 c0 -2 8 -10 18 -17 15 -13 16 -12 3 4 -13 16 -21 21 -21
13z"/>
<path d="M1866 358 c3 -5 10 -6 15 -3 13 9 11 12 -6 12 -8 0 -12 -4 -9 -9z"/>
<path d="M1295 351 c-3 -5 -2 -12 3 -15 5 -3 9 1 9 9 0 17 -3 19 -12 6z"/>
<path d="M3413 345 c0 -8 4 -12 9 -9 5 3 6 10 3 15 -9 13 -12 11 -12 -6z"/>
<path d="M4015 351 c-3 -5 -2 -12 3 -15 5 -3 9 1 9 9 0 17 -3 19 -12 6z"/>
<path d="M1250 339 c0 -5 5 -7 10 -4 6 3 10 8 10 11 0 2 -4 4 -10 4 -5 0 -10
-5 -10 -11z"/>
<path d="M1490 339 c0 -5 5 -7 10 -4 6 3 10 8 10 11 0 2 -4 4 -10 4 -5 0 -10
-5 -10 -11z"/>
<path d="M1615 340 c3 -5 8 -10 11 -10 2 0 4 5 4 10 0 6 -5 10 -11 10 -5 0 -7
-4 -4 -10z"/>
<path d="M3335 340 c3 -5 8 -10 11 -10 2 0 4 5 4 10 0 6 -5 10 -11 10 -5 0 -7
-4 -4 -10z"/>
<path d="M3535 340 c3 -5 8 -10 11 -10 2 0 4 5 4 10 0 6 -5 10 -11 10 -5 0 -7
-4 -4 -10z"/>
<path d="M3695 340 c3 -5 8 -10 11 -10 2 0 4 5 4 10 0 6 -5 10 -11 10 -5 0 -7
-4 -4 -10z"/>
<path d="M3970 339 c0 -5 5 -7 10 -4 6 3 10 8 10 11 0 2 -4 4 -10 4 -5 0 -10
-5 -10 -11z"/>
</g>
</svg>
